<svg width="600" height="800" viewBox="0 0 600 800" xmlns="http://www.w3.org/2000/svg">
  <defs>
    <linearGradient id="velvetGradient" x1="0%" y1="0%" x2="100%" y2="100%">
      <stop offset="0%" style="stop-color:#8B0000;stop-opacity:1" />
      <stop offset="50%" style="stop-color:#B22222;stop-opacity:1" />
      <stop offset="100%" style="stop-color:#DC143C;stop-opacity:1" />
    </linearGradient>
    <filter id="shadow" x="-20%" y="-20%" width="140%" height="140%">
      <feDropShadow dx="5" dy="5" stdDeviation="10" flood-color="#000000" flood-opacity="0.5"/>
    </filter>
  </defs>

  <!-- Main curtain body -->
  <path d="M0 0 Q150 50 300 0 Q450 -50 600 0 L600 800 Q450 750 300 800 Q150 850 0 800 Z"
        fill="url(#velvetGradient)"
        filter="url(#shadow)"/>

  <!-- Folds -->
  <path d="M100 0 Q120 20 140 0 Q160 -20 180 0 Q200 20 220 0 Q240 -20 260 0 Q280 20 300 0"
        fill="none" stroke="#8B0000" stroke-width="2" opacity="0.3"/>
  <path d="M320 0 Q340 20 360 0 Q380 -20 400 0 Q420 20 440 0 Q460 -20 480 0 Q500 20 520 0"
        fill="none" stroke="#8B0000" stroke-width="2" opacity="0.3"/>

  <!-- Vertical folds -->
  <path d="M150 0 Q160 100 170 200 Q180 300 190 400 Q200 500 210 600 Q220 700 230 800"
        fill="none" stroke="#8B0000" stroke-width="1" opacity="0.2"/>
  <path d="M250 0 Q260 100 270 200 Q280 300 290 400 Q300 500 310 600 Q320 700 330 800"
        fill="none" stroke="#8B0000" stroke-width="1" opacity="0.2"/>
  <path d="M350 0 Q360 100 370 200 Q380 300 390 400 Q400 500 410 600 Q420 700 430 800"
        fill="none" stroke="#8B0000" stroke-width="1" opacity="0.2"/>
  <path d="M450 0 Q460 100 470 200 Q480 300 490 400 Q500 500 510 600 Q520 700 530 800"
        fill="none" stroke="#8B0000" stroke-width="1" opacity="0.2"/>
</svg>
