<svg width="600" height="800" viewBox="0 0 600 800" xmlns="http://www.w3.org/2000/svg">
  <defs>
    <linearGradient id="velvetGradient" x1="0%" y1="0%" x2="100%" y2="100%">
      <stop offset="0%" style="stop-color:#8B0000;stop-opacity:1" />
      <stop offset="50%" style="stop-color:#B22222;stop-opacity:1" />
      <stop offset="100%" style="stop-color:#DC143C;stop-opacity:1" />
    </linearGradient>
    <filter id="shadow" x="-20%" y="-20%" width="140%" height="140%">
      <feDropShadow dx="5" dy="5" stdDeviation="10" flood-color="#000000" flood-opacity="0.5"/>
    </filter>
  </defs>

  <!-- Main curtain body -->
  <path d="M600 0 Q450 50 300 0 Q150 -50 0 0 L0 800 Q150 750 300 800 Q450 850 600 800 Z"
        fill="url(#velvetGradient)"
        filter="url(#shadow)"/>

  <!-- Folds -->
  <path d="M500 0 Q480 20 460 0 Q440 -20 420 0 Q400 20 380 0 Q360 -20 340 0 Q320 20 300 0"
        fill="none" stroke="#8B0000" stroke-width="2" opacity="0.3"/>
  <path d="M280 0 Q260 20 240 0 Q220 -20 200 0 Q180 20 160 0 Q140 -20 120 0 Q100 20 80 0"
        fill="none" stroke="#8B0000" stroke-width="2" opacity="0.3"/>

  <!-- Vertical folds -->
  <path d="M450 0 Q440 100 430 200 Q420 300 410 400 Q400 500 390 600 Q380 700 370 800"
        fill="none" stroke="#8B0000" stroke-width="1" opacity="0.2"/>
  <path d="M350 0 Q340 100 330 200 Q320 300 310 400 Q300 500 290 600 Q280 700 270 800"
        fill="none" stroke="#8B0000" stroke-width="1" opacity="0.2"/>
  <path d="M250 0 Q240 100 230 200 Q220 300 210 400 Q200 500 190 600 Q180 700 170 800"
        fill="none" stroke="#8B0000" stroke-width="1" opacity="0.2"/>
  <path d="M150 0 Q140 100 130 200 Q120 300 110 400 Q100 500 90 600 Q80 700 70 800"
        fill="none" stroke="#8B0000" stroke-width="1" opacity="0.2"/>
</svg>
